<svg xmlns="http://www.w3.org/2000/svg" xmlns:xlink="http://www.w3.org/1999/xlink" width="1464" height="1234" viewBox="0 0 1464 1234">
    <defs>
        <path id="a" d="M120 235h1464v1234H120z"/>
    </defs>
    <g fill="none" fill-rule="evenodd" transform="translate(-120 -235)">
        <mask id="b" fill="#fff">
            <use xlink:href="#a"/>
        </mask>
        <use fill="#1B1E20" xlink:href="#a"/>
        <g fill="#25282A" mask="url(#b)">
            <path d="M620.378 1157.911c-80.485-60.673-137.111-152.757-150.078-260.734-.066-.555-.115-1.11-.179-1.662a7.173 7.173 0 0 1 6.458 2.245 7.63 7.63 0 0 1 1.402 2.366 4.1 4.1 0 0 1 .234.83c11.966 39.708 32.642 77.48 62.319 110.277 29.569 32.684 64.918 56.955 103.087 72.831.39.117.76.275 1.133.457a7.33 7.33 0 0 1 2.02 1.552 7.095 7.095 0 0 1 1.362 7.394l-.208.533-27.55 63.911zM467.67 860.676c-2.737-108.121 40.213-208.687 112.666-281.042a7.11 7.11 0 0 1 1.985 6.167 7.172 7.172 0 0 1-.981 2.555c-.125.248-.305.49-.485.72-23.586 34.117-40.235 73.823-47.37 117.46-7.106 43.508-4.042 86.286 7.341 126.025.136.368.254.768.336 1.175.175.803.187 1.66.046 2.54a7.084 7.084 0 0 1-4.923 5.664l-.545.174-68.07 18.562zm138.121-304.264c54.993-45.87 123.427-76.91 199.825-86.085 30.177-3.626 59.95-3.626 88.9-.378a7.182 7.182 0 0 1-3.652 5.556 7.602 7.602 0 0 1-2.62.815c-.282.04-.582.07-.878.044-41.417 2.505-82.914 13.919-121.66 35.238-38.602 21.269-70.354 50.06-94.618 83.57a6.298 6.298 0 0 1-.695.98 7.09 7.09 0 0 1-1.97 1.62 7.1 7.1 0 0 1-7.51-.39l-.468-.334-54.654-40.636zm324.806-80.663c101.84 21.465 190.45 83.752 245.47 170.835a7.118 7.118 0 0 1-3.13-.509c-.872-.348-1.631-.883-2.28-1.512a3.787 3.787 0 0 1-.59-.646c-28.004-30.592-63.007-55.66-103.977-72.337-40.826-16.612-83.21-23.135-124.482-20.903a6.46 6.46 0 0 1-1.217.074 7.078 7.078 0 0 1-6.91-6.594l-.054-.564-2.83-67.844zm301.868 329.895c7.275 60.567-.004 119.516-19.038 173.388a7.196 7.196 0 0 1-3.849-4.48 7.813 7.813 0 0 1-.224-2.727c.02-.276.074-.58.158-.85 6.634-40.947 4.57-83.95-7.753-126.423-12.292-42.332-33.443-79.636-60.813-110.63a5.595 5.595 0 0 1-.809-.905c-.509-.655-.887-1.426-1.145-2.273-.791-2.687.08-5.456 2.03-7.238l.415-.395 52.451-45.147c19.71 38.912 33.075 81.864 38.577 127.68zm-105.527 197.12c.188-.815.55-1.586 1.06-2.317 1.595-2.306 4.296-3.364 6.905-2.967l.563.086 65.643 12.12c-42.261 93.146-120.954 167.601-220.098 203.069a7.096 7.096 0 0 1 1.271-4.472 7.344 7.344 0 0 1 1.99-1.89c.229-.164.49-.312.75-.428 36.056-20.496 68.278-49.058 93.645-85.278 25.284-36.117 41.083-75.974 48.07-116.721.037-.403.099-.805.201-1.202zm-179.37 220.241a387.114 387.114 0 0 1-50.42 9.485c-89.422 10.74-175.34-10.196-246.54-53.961 1.183-1.876 3.206-3.198 5.624-3.35a7.609 7.609 0 0 1 2.72.39c.276.084.53.195.793.333 38.459 15.524 80.86 23.06 125.012 20.444 44.004-2.6 85.046-14.978 121.329-34.791a5.655 5.655 0 0 1 1.065-.597 7.002 7.002 0 0 1 2.475-.617 7.118 7.118 0 0 1 6.616 3.573l.276.5 31.05 58.591zm-234.878-187.57c-48.323-36.428-82.32-91.717-90.106-156.545-.04-.335-.068-.665-.108-1a4.304 4.304 0 0 1 3.877 1.35c.366.424.655.905.843 1.42.06.156.112.326.142.498 7.182 23.84 19.597 46.52 37.416 66.212 17.75 19.623 38.976 34.196 61.892 43.727.235.07.457.162.681.273.44.228.853.542 1.212.933a4.257 4.257 0 0 1 .819 4.439l-.126.32-16.542 38.373zm-91.684-178.461c-1.643-64.916 24.145-125.295 67.644-168.74a4.268 4.268 0 0 1 1.191 3.704 4.284 4.284 0 0 1-.588 1.536 2.816 2.816 0 0 1-.29.432c-14.161 20.484-24.157 44.322-28.442 70.523-4.265 26.12-2.427 51.805 4.409 75.665.08.22.152.463.2.707.104.48.112.995.028 1.526a4.25 4.25 0 0 1-2.955 3.398l-.329.106-40.868 11.143zm82.928-182.68c33.019-27.54 74.105-46.178 119.975-51.684a231.149 231.149 0 0 1 53.374-.228 4.311 4.311 0 0 1-2.192 3.336 4.54 4.54 0 0 1-1.572.488c-.17.024-.35.044-.529.028-24.865 1.504-49.78 8.356-73.043 21.155-23.178 12.771-42.242 30.057-56.81 50.177a4.277 4.277 0 0 1-1.6 1.562 4.261 4.261 0 0 1-4.508-.237l-.28-.198-32.815-24.398zm195.013-48.43c61.146 12.89 114.346 50.286 147.38 102.571a4.291 4.291 0 0 1-1.877-.308 4.161 4.161 0 0 1-1.372-.907 2.252 2.252 0 0 1-.354-.387c-16.812-18.367-37.829-33.419-62.428-43.433-24.51-9.971-49.958-13.89-74.737-12.548-.237.04-.485.05-.733.044a4.248 4.248 0 0 1-4.147-3.959l-.034-.338-1.698-40.734zm181.241 198.07c4.367 36.364-.002 71.757-11.43 104.1a4.3 4.3 0 0 1-2.31-2.688 4.586 4.586 0 0 1-.134-1.638c.01-.166.044-.348.094-.51 3.983-24.583 2.743-50.405-4.656-75.905-7.38-25.416-20.08-47.812-36.51-66.422a3.272 3.272 0 0 1-.489-.543 4.213 4.213 0 0 1-.687-1.366 4.245 4.245 0 0 1 1.22-4.345l.248-.236 31.493-27.106c11.832 23.362 19.86 49.152 23.161 76.658zm-63.359 118.351c.115-.49.33-.955.637-1.392a4.241 4.241 0 0 1 4.145-1.782l.338.052 39.413 7.277c-25.374 55.923-72.62 100.628-132.147 121.923-.048-.92.19-1.862.765-2.685a4.401 4.401 0 0 1 1.195-1.134c.136-.1.292-.188.448-.258 21.648-12.306 40.995-29.454 56.224-51.202 15.18-21.683 24.667-45.613 28.862-70.08.022-.24.06-.483.12-.719zm-107.693 132.231a232.495 232.495 0 0 1-30.273 5.697c-53.69 6.446-105.274-6.125-148.02-32.4a4.292 4.292 0 0 1 3.376-2.01 4.517 4.517 0 0 1 1.632.232c.166.052.318.118.477.2a172.674 172.674 0 0 0 75.056 12.275c26.42-1.56 51.062-8.991 72.847-20.889.196-.14.413-.26.639-.356.45-.213.96-.335 1.486-.37a4.275 4.275 0 0 1 3.972 2.144l.165.302 18.643 35.175zm-401.8 233.372c-119.868-90.364-204.199-227.507-223.511-388.32-.1-.825-.17-1.648-.267-2.473 3.43-.552 7.069.557 9.616 3.346a11.222 11.222 0 0 1 2.088 3.522c.154.389.282.81.352 1.236 17.82 59.137 48.611 115.393 92.811 164.236 44.034 48.68 96.682 84.826 153.53 108.47.581.172 1.132.408 1.686.68a10.813 10.813 0 0 1 3.008 2.311c2.82 3.078 3.462 7.375 2.03 11.013l-.312.795-41.03 95.184zM279.91 865.208c-4.075-161.025 59.89-310.8 167.795-418.563 2.31 2.333 3.518 5.672 2.955 9.187-.23 1.381-.757 2.657-1.46 3.806-.188.369-.454.73-.722 1.073-35.128 50.81-59.925 109.943-70.55 174.936-10.582 64.796-6.018 128.504 10.934 187.69.202.547.38 1.143.5 1.75.26 1.197.277 2.473.068 3.784a10.542 10.542 0 0 1-7.332 8.432l-.811.26-101.377 27.645zm205.705-453.145c81.902-68.316 183.822-114.544 297.603-128.208 44.943-5.399 89.285-5.4 132.4-.561a10.685 10.685 0 0 1-5.44 8.272 11.275 11.275 0 0 1-3.901 1.215c-.419.058-.87.102-1.308.068-61.682 3.728-123.483 20.726-181.188 52.476C666.287 377.002 619 419.882 582.863 469.789a9.164 9.164 0 0 1-1.035 1.462c-.805.957-1.764 1.75-2.933 2.414a10.585 10.585 0 0 1-11.183-.584l-.7-.499-81.397-60.519zm483.74-120.131c151.672 31.967 283.64 124.734 365.58 254.426a10.582 10.582 0 0 1-4.657-.758c-1.303-.521-2.433-1.314-3.398-2.253a5.583 5.583 0 0 1-.88-.96c-41.706-45.563-93.837-82.892-154.852-107.734-60.804-24.737-123.926-34.458-185.394-31.132-.589.1-1.203.126-1.816.112a10.394 10.394 0 0 1-3.7-.755 10.55 10.55 0 0 1-6.588-9.065l-.082-.84-4.213-101.041zM1418.93 783.25c10.833 90.202-.004 177.999-28.355 258.225a10.7 10.7 0 0 1-5.729-6.668 11.588 11.588 0 0 1-.334-4.063c.028-.412.11-.863.234-1.267 9.88-60.98 6.806-125.029-11.545-188.283-18.308-63.046-49.809-118.603-90.57-164.766a8.15 8.15 0 0 1-1.208-1.345c-.757-.973-1.322-2.125-1.704-3.386-1.178-4 .118-8.128 3.021-10.779l.62-.587 78.117-67.238c29.35 57.952 49.26 121.923 57.453 190.157zm-157.164 293.573c.28-1.214.821-2.365 1.58-3.454 2.377-3.43 6.398-5.008 10.282-4.418l.84.13 97.762 18.05c-62.94 138.72-180.135 249.613-327.797 302.433-.12-2.279.47-4.618 1.898-6.66a10.918 10.918 0 0 1 2.962-2.813 6.45 6.45 0 0 1 1.115-.637c53.701-30.526 101.688-73.064 139.47-127.01 37.654-53.786 61.184-113.146 71.59-173.833.054-.597.146-1.2.298-1.788zM994.63 1404.832a576.839 576.839 0 0 1-75.092 14.128c-133.178 15.993-261.136-15.19-367.175-80.368 1.76-2.797 4.774-4.76 8.378-4.988 1.388-.05 2.765.142 4.049.579.412.124.79.292 1.181.497 57.278 23.123 120.426 34.346 186.183 30.447 65.535-3.872 126.66-22.306 180.696-51.815a8.593 8.593 0 0 1 1.586-.889c1.12-.52 2.38-.827 3.686-.917 4.159-.258 7.917 1.935 9.854 5.32l.41.747 46.244 87.259zm-655.643 126.416C160.465 1396.668 34.867 1192.42 6.103 952.92c-.148-1.227-.252-2.457-.394-3.686 5.106-.823 10.528.829 14.32 4.982 1.356 1.565 2.422 3.341 3.11 5.246.229.578.419 1.205.523 1.84 26.537 88.075 72.399 171.856 138.228 244.601 65.581 72.5 143.99 126.33 228.653 161.546.865.256 1.686.608 2.513 1.013a16.155 16.155 0 0 1 4.479 3.442c4.199 4.583 5.154 10.983 3.023 16.401l-.464 1.183-61.108 141.759zM.274 871.958c-6.07-239.82 89.193-462.881 249.9-623.371 3.441 3.472 5.24 8.443 4.4 13.68-.344 2.058-1.125 3.956-2.174 5.67-.278.549-.677 1.088-1.077 1.598-52.316 75.673-89.243 163.74-105.068 260.536-15.76 96.5-8.964 191.385 16.283 279.526.299.817.565 1.704.745 2.607.387 1.784.413 3.684.1 5.639a15.705 15.705 0 0 1-10.918 12.558l-1.208.387L.274 871.958zm306.36-674.876C428.615 95.337 580.404 26.49 749.86 6.14c66.934-8.04 132.974-8.043 197.185-.835a15.921 15.921 0 0 1-8.101 12.32 16.843 16.843 0 0 1-5.811 1.807c-.623.088-1.294.156-1.948.104-91.862 5.552-183.904 30.868-269.847 78.152-85.623 47.177-156.053 111.04-209.87 185.367a13.54 13.54 0 0 1-1.54 2.173c-1.2 1.43-2.63 2.609-4.37 3.598a15.757 15.757 0 0 1-16.655-.869l-1.041-.743-121.226-90.132zM1027.077 18.17c225.887 47.608 422.43 185.768 544.467 378.923-2.293.14-4.654-.2-6.94-1.131-1.938-.775-3.622-1.957-5.06-3.356a8.423 8.423 0 0 1-1.312-1.43c-62.11-67.856-139.75-123.453-230.624-160.446-90.553-36.846-184.561-51.323-276.108-46.369-.875.15-1.793.186-2.704.168a15.43 15.43 0 0 1-5.514-1.125c-5.789-2.36-9.413-7.681-9.81-13.502l-.122-1.253-6.273-150.479zm669.562 731.728c16.133 134.34-.01 265.095-42.23 384.58a15.953 15.953 0 0 1-8.535-9.93 17.349 17.349 0 0 1-.497-6.051 8.529 8.529 0 0 1 .35-1.886c14.714-90.823 10.136-186.209-17.196-280.414-27.266-93.898-74.183-176.639-134.888-245.386a12.227 12.227 0 0 1-1.796-2.006c-1.128-1.452-1.969-3.166-2.54-5.044-1.751-5.957.177-12.102 4.504-16.053l.92-.875 116.342-100.14c43.713 86.308 73.36 181.582 85.566 283.205zm-234.068 437.224c.417-1.808 1.222-3.52 2.353-5.142 3.538-5.112 9.527-7.459 15.312-6.58l1.25.193 145.6 26.881c-93.737 206.6-268.28 371.75-488.192 450.419-.179-3.394.7-6.876 2.825-9.92a16.27 16.27 0 0 1 4.413-4.189 9.355 9.355 0 0 1 1.658-.949c79.978-45.461 151.448-108.814 207.716-189.158 56.08-80.104 91.123-168.51 106.62-258.892.083-.889.22-1.786.445-2.663zm-397.853 488.507a858.743 858.743 0 0 1-111.836 21.04c-198.344 23.82-388.916-22.62-546.84-119.692 2.624-4.165 7.11-7.09 12.477-7.428a16.849 16.849 0 0 1 6.03.863c.614.186 1.177.436 1.76.736 85.303 34.439 179.352 51.155 277.283 45.35 97.604-5.77 188.64-33.221 269.116-77.17.73-.521 1.527-.966 2.362-1.324 1.668-.775 3.545-1.232 5.489-1.366 6.195-.384 11.794 2.881 14.677 7.923l.609 1.114 68.873 129.954z"/>
        </g>
    </g>
</svg>
